<?xml version="1.0" encoding="UTF-8"?>
<svg id="Sketch" xmlns="http://www.w3.org/2000/svg" viewBox="0 0 774.67 665.18">
  <defs>
    <style>
      .cls-1 {
        fill: #00aa26;
        stroke: #006a20;
      }

      .cls-1, .cls-2 {
        stroke-miterlimit: 10;
        stroke-width: 2px;
      }

      .cls-2 {
        fill: #ffcd94;
        stroke: #a67c52;
      }
    </style>
  </defs>
  <path class="cls-1" d="m380.68,664.18H21.97c-16.12,0-26.19-17.45-18.13-31.4l179.36-310.65L362.55,11.47c8.06-13.96,28.2-13.96,36.26,0l179.36,310.65,179.36,310.65c8.06,13.96-2.01,31.4-18.13,31.4h-358.71Z"/>
  <path class="cls-2" d="m286.32,144.27l-102.68,177.86L4.28,632.78c-8.06,13.96,2.01,31.4,18.13,31.4h548.68L286.32,144.27Z"/>
  <path class="cls-2" d="m585.67,331.91l67.77,113.67,118.37,198.54c5.32,8.92-1.33,20.07-11.97,20.07h-236.73s-125.37,0-125.37,0l187.94-332.27Z"/>
</svg>